# Alias OBJ Model File
# Exported from SketchUp, (c) 2000-2012 Trimble Navigation Limited
# File units = meters

mtllib emilHouse3.mtl

g Mesh1 Model

usemtl Brick_Antique
v 28.6271 0 -28.0808
vt 19.0611 -9.46934e-029
vn 1 3.10869e-030 4.05454e-016
v 28.6271 0.16198 -4.53078
vt 3.07547 0.172356
v 28.6271 0 -4.53078
vt 3.07547 -9.46934e-029
f 1/1/1 2/2/1 3/3/1

v 28.6271 0.16198 -28.0808
vt 19.0611 0.172356
f 2/2/1 1/1/1 4/4/1

vt -19.4319 0
vn 0 0 -1
v -7.13234 0.16198 -28.0808
vt 4.84139 0.172356
vt -19.4319 0.172356
f 1/5/2 5/6/2 4/7/2

v 0.550358 0 -28.0808
vt -0.37358 0
f 6/8/2 5/6/2 1/5/2

v -7.13234 0 -28.0808
vt 4.84139 0
f 5/6/2 6/8/2 7/9/2

usemtl FrontColor
vt -21.6676 1105.54
vn 0 -1 -0
v -7.13234 0 -8.60134
vt 280.801 338.636
vt 280.801 1105.54
f 6/10/3 8/11/3 7/12/3

v 0.550358 0 -8.60134
vt -21.6676 338.636
f 8/11/3 6/10/3 9/13/3

vt -1127.05 1105.54
f 1/14/3 9/13/3 6/10/3

v 0.550358 0 -0
vt -21.6676 0
f 9/13/3 1/14/3 10/15/3

v 14.5189 0 -4.53078
vt -571.61 178.377
f 10/15/3 1/14/3 11/16/3

vt -1127.05 178.377
f 11/16/3 1/14/3 3/17/3

usemtl Brick_Antique
vt 19.4319 0.172356
vn 0 5.6374e-015 1
vt 9.85535 2.71779e-014
vt 19.4319 2.71779e-014
f 2/18/4 11/19/4 3/20/4

v 14.5189 0.16198 -4.53078
vt 9.85535 0.172356
f 11/19/4 2/18/4 12/21/4

usemtl FrontColor
vt 1127.05 178.377
vn 5.24671e-019 1 4.48387e-018
v 14.5189 0.16198 -5.03674
vt 571.61 198.297
vt 571.61 178.377
f 2/22/5 13/23/5 12/24/5

v 27.9287 0.16198 -5.03674
vt 1099.56 198.297
f 13/23/5 2/22/5 14/25/5

v 27.9287 0.16198 -17.4556
vt 1099.56 687.229
f 14/25/5 2/22/5 15/26/5

v 27.9287 0.16198 -17.9616
vt 1099.56 707.149
f 15/26/5 2/22/5 16/27/5

v 27.9287 0.16198 -27.5748
vt 1099.56 1085.62
f 16/27/5 2/22/5 17/28/5

vt 1127.05 1105.54
f 4/29/5 17/28/5 2/22/5

v -6.43391 0.16198 -27.5748
vt -253.304 1085.62
f 4/29/5 18/30/5 17/28/5

vt -280.801 1105.54
f 5/31/5 18/30/5 4/29/5

v -6.43391 0.16198 -9.1073
vt -253.304 358.555
f 18/30/5 5/31/5 19/32/5

v -7.13234 0.16198 -8.60134
vt -280.801 338.636
f 20/33/5 19/32/5 5/31/5

v 0.550358 0.16198 -8.60134
vt 21.6676 338.636
f 19/32/5 20/33/5 21/34/5

usemtl Brick_Antique
vt -4.84139 0
vn 0 0 1
vt 0.37358 0.172356
vt -4.84139 0.172356
f 8/35/6 21/36/6 20/37/6

vt 0.37358 0
f 21/36/6 8/35/6 9/38/6

vt 0 0
vn -1 0 -0
vt -5.83855 0.172356
vt -5.83855 0
f 10/39/7 21/40/7 9/41/7

v 0.550358 0.16198 -0
vt 0 0.172356
f 21/40/7 10/39/7 22/42/7

v 14.5189 0.16198 -0
f 10/38/6 23/21/6 22/36/6

v 14.5189 0 -0
vt 9.85535 0
f 23/21/6 10/38/6 24/43/6

usemtl FrontColor
vt -571.61 0
f 24/44/3 10/15/3 11/16/3

usemtl Brick_Antique
vt 3.07547 0
vn 1 0 -0
f 11/45/8 23/42/8 24/39/8

f 23/42/8 11/45/8 12/2/8

usemtl FrontColor
v 14.5189 0.16198 -12.6743
vt 571.61 498.988
vt 571.61 2.85944e-017
f 25/46/5 23/47/5 12/24/5

v 13.8205 0.16198 -13.1803
vt 544.113 518.908
f 26/48/5 23/47/5 25/46/5

v 13.8205 0.16198 -0.50596
vt 544.113 19.9197
f 27/49/5 23/47/5 26/48/5

v 11.969 0.16198 -0.50596
vt 471.221 19.9197
f 28/50/5 23/47/5 27/49/5

v 11.969 0.16198 -0
vt 471.221 2.85944e-017
f 23/47/5 28/50/5 29/51/5

vt 0 6.37717
v 11.969 4.94039 -0.50596
vt -19.9197 194.504
vt -19.9197 6.37717
f 29/52/7 30/53/7 28/54/7

v 11.969 4.94039 -0
vt 0 194.504
f 30/53/7 29/52/7 31/55/7

usemtl Cladding_Siding_Tan
vt 15.7074 0.212572
vn 2.08072e-017 3.27218e-017 1
v 14.5189 8.33661 -1.36972e-015
vt 19.0537 10.9404
vt 15.7074 6.48345
f 29/56/9 32/57/9 31/58/9

vt 19.0537 0.212572
f 32/57/9 29/56/9 23/59/9

usemtl Brick_Antique
vt 8.1245 0.172356
f 22/36/6 23/21/6 29/60/6

v 3.37836 0.16198 -0
vt 2.29321 0.172356
f 22/36/6 29/60/6 33/61/6

usemtl Wood__Floor
vt 7.85368 7.20961e-019
vn 3.04309e-020 1 6.78321e-018
v 3.37836 0.16198 -0.50596
vt 2.21677 0.331995
vt 2.21677 7.20961e-019
f 29/62/10 34/63/10 33/64/10

v 5.82981 0.16198 -17.9616
vt 3.82534 11.7858
f 34/63/10 29/62/10 35/65/10

v 8.63328 0.16198 -23.089
vt 5.66488 15.1502
f 35/65/10 29/62/10 36/66/10

vt 7.85368 0.331995
f 28/67/10 36/66/10 29/62/10

vt 9.06855 8.64846
f 26/68/10 36/66/10 28/67/10

v 15.9047 0.16198 -17.9616
vt 10.4361 11.7858
f 37/69/10 36/66/10 26/68/10

vt 18.3259 18.0937
f 17/70/10 36/66/10 37/69/10

v 7.98394 0.16198 -23.2753
vt 5.2388 15.2725
f 17/70/10 38/71/10 36/66/10

vt -4.22173 18.0937
f 18/72/10 38/71/10 17/70/10

v 5.32007 0.16198 -18.4032
vt 3.49086 12.0756
f 18/72/10 39/73/10 38/71/10

v -6.43391 0.16198 -16.6851
vt -4.22173 10.9482
f 39/73/10 18/72/10 40/74/10

usemtl FrontColor
v -6.43391 0.16198 -16.169
vt -253.304 636.574
vt -253.304 656.895
f 18/30/5 41/75/5 40/76/5

f 18/30/5 19/32/5 41/75/5

usemtl Wood__Floor
v 1.24879 0.16198 -9.1073
vt 0.819413 5.97592
vt -4.22173 10.6096
vt -4.22173 5.97592
f 42/77/10 41/78/10 19/79/10

f 41/78/10 42/77/10 35/65/10

f 35/65/10 42/77/10 34/63/10

v 1.24879 0.16198 -0.50596
vt 0.819413 0.331995
f 34/63/10 42/77/10 43/80/10

usemtl FrontColor
vt 49.1648 358.555
vt 49.1648 19.9197
f 42/81/5 21/34/5 43/82/5

f 19/32/5 21/34/5 42/81/5

usemtl Steve_Shirt
v -6.43391 6.41441 -9.1073
vt 253.304 252.536
vt -49.1648 6.37717
vt 253.304 6.37717
f 44/83/2 42/84/2 19/85/2

v 1.24879 6.41441 -9.1073
vt -49.1648 252.536
f 42/84/2 44/83/2 45/86/2

usemtl FrontColor
vn 0 1 -0
v -6.43391 6.41441 -16.169
f 45/81/11 46/75/11 44/32/11

v 5.82981 6.41441 -17.9616
vt 229.52 707.149
f 46/75/11 45/81/11 47/87/11

v 13.8205 6.41441 -0.50596
f 45/81/11 48/49/11 47/87/11

v 1.24879 6.41441 -0.50596
f 48/49/11 45/81/11 49/82/11

usemtl Steve_Jacket2
vt 19.9197 252.536
vt 358.555 6.37717
vt 358.555 252.536
f 49/88/8 42/89/8 45/90/8

vt 19.9197 6.37717
f 42/89/8 49/88/8 43/91/8

vn -1.26188e-018 1.41469e-016 -1
vt -133.006 6.37717
f 49/86/12 34/92/12 43/84/12

v 3.37836 4.94039 -0.50596
vt -133.006 194.504
f 34/92/12 49/86/12 50/93/12

vt -471.221 194.504
f 50/93/12 49/86/12 30/94/12

vt -544.113 252.536
f 48/95/12 30/94/12 49/86/12

vt -544.113 6.37717
f 27/96/12 30/94/12 48/95/12

vt -471.221 6.37717
f 30/94/12 27/96/12 28/97/12

usemtl Wood__Floor
vt 9.06855 0.331995
f 26/68/10 28/67/10 27/98/10

usemtl Steve_Jacket2
v 13.8205 6.41441 -13.1803
vt -518.908 252.536
vt -518.908 6.37717
f 27/54/7 51/99/7 26/100/7

vt -19.9197 252.536
f 51/99/7 27/54/7 48/101/7

usemtl FrontColor
v 8.63328 6.41441 -23.089
vt 339.893 909.015
f 51/48/11 52/102/11 48/49/11

v 15.9047 6.41441 -17.9616
vt 626.168 707.149
f 53/103/11 52/102/11 51/48/11

v 27.9287 6.41441 -27.5748
f 54/28/11 52/102/11 53/103/11

v 7.98394 6.41441 -23.2753
vt 314.328 916.35
f 54/28/11 55/104/11 52/102/11

v -6.43391 6.41441 -27.5748
f 56/30/11 55/104/11 54/28/11

v 5.32007 6.41441 -18.4032
vt 209.452 724.536
f 56/30/11 57/105/11 55/104/11

v -6.43391 6.41441 -16.6851
f 57/105/11 56/30/11 58/76/11

usemtl Steve_Shoes2
vt 656.895 252.536
v -6.43391 4.65478 -19.1898
vt 755.504 183.259
vt 1085.62 252.536
f 58/106/8 59/107/8 56/108/8

v -6.43391 3.31035 -19.1898
vt 755.504 130.329
f 59/107/8 58/106/8 60/109/8

vt 656.895 6.37717
f 40/110/8 60/109/8 58/106/8

vt 1085.62 6.37717
f 60/109/8 40/110/8 18/111/8

v -6.43391 3.31035 -25.1017
vt 988.256 130.329
f 60/109/8 18/111/8 61/112/8

v -6.43391 4.65478 -25.1017
vt 988.256 183.259
f 61/112/8 18/111/8 62/113/8

f 56/108/8 62/113/8 18/111/8

f 56/108/8 59/107/8 62/113/8

usemtl FrontColor
v -7.13234 4.65478 -19.1898
vt 280.801 755.504
vt 253.304 988.256
vt 253.304 755.504
f 63/114/3 62/115/3 59/116/3

v -7.13234 4.65478 -25.1017
vt 280.801 988.256
f 62/115/3 63/114/3 64/117/3

usemtl Cladding_Siding_Tan
vt -25.1835 6.10864
vn -1 1.79987e-016 3.78579e-033
v -7.13234 7.16529 -28.0808
vt -36.8514 9.40326
vt -32.9419 6.10864
f 63/118/13 65/119/13 64/120/13

v -7.13234 4.65478 -14.9635
vt -19.6372 6.10864
f 66/121/13 65/119/13 63/118/13

v -7.13234 4.65478 -10.3087
vt -13.5285 6.10864
f 67/122/13 65/119/13 66/121/13

v -7.13234 7.16529 -8.60134
vt -11.2879 9.40326
f 67/122/13 68/123/13 65/119/13

vt -11.2879 0.212572
f 68/123/13 67/122/13 20/124/13

v -7.13234 3.31035 -10.3087
vt -13.5285 4.34429
f 69/125/13 20/124/13 67/122/13

vt -36.8514 0.212572
f 20/124/13 69/125/13 5/126/13

v -7.13234 3.31035 -14.9635
vt -19.6372 4.34429
f 5/126/13 69/125/13 70/127/13

usemtl FrontColor
v -6.43391 3.31035 -10.3087
vt -253.304 405.855
vt -280.801 589.116
vt -280.801 405.855
f 71/128/11 70/129/11 69/130/11

v -6.43391 3.31035 -14.9635
vt -253.304 589.116
f 70/129/11 71/128/11 72/131/11

usemtl Steve_Shirt
vt 405.855 130.329
vt 636.574 6.37717
vt 589.116 130.329
f 71/132/8 41/133/8 72/134/8

f 71/132/8 19/89/8 41/133/8

f 19/89/8 71/132/8 44/90/8

v -6.43391 4.65478 -10.3087
vt 405.855 183.259
f 73/135/8 44/90/8 71/132/8

vt 636.574 252.536
f 44/90/8 73/135/8 46/136/8

v -6.43391 4.65478 -14.9635
vt 589.116 183.259
f 46/136/8 73/135/8 74/137/8

usemtl FrontColor
vt 280.801 405.855
vt 253.304 589.116
vt 253.304 405.855
f 67/138/3 74/139/3 73/140/3

vt 280.801 589.116
f 74/139/3 67/138/3 66/141/3

vt -280.801 130.329
vt -253.304 183.259
vt -280.801 183.259
f 70/142/6 74/143/6 66/144/6

vt -253.304 130.329
f 74/143/6 70/142/6 72/145/6

usemtl Steve_Shirt
f 72/134/8 41/133/8 74/137/8

f 46/136/8 74/137/8 41/133/8

vt -158.57 6.37717
vn 0.144634 0 0.989485
vt 329.385 252.536
vt -158.57 252.536
f 41/146/14 47/147/14 46/148/14

vt 329.385 6.37717
f 47/147/14 41/146/14 35/149/14

usemtl FrontColor
f 35/87/5 40/76/5 41/75/5

f 40/76/5 35/87/5 39/105/5

f 39/105/5 35/87/5 38/104/5

f 38/104/5 35/87/5 36/102/5

usemtl Steve_Shirt
vt 960.64 6.37717
vn 0.877413 0 0.479736
vt 730.571 252.536
vt 730.571 6.37717
f 36/150/15 47/151/15 35/152/15

vt 960.64 252.536
f 47/151/15 36/150/15 52/153/15

usemtl Steve_Shoes2
vt -75.995 6.37717
vn 0.275809 0 -0.961212
vt -49.3986 252.536
vt -75.995 252.536
f 36/154/16 55/155/16 52/156/16

vt -49.3986 6.37717
f 55/155/16 36/154/16 38/157/16

vt -736.199 6.37717
vn -0.877413 0 -0.479736
vt -954.812 252.536
vt -954.812 6.37717
f 39/158/17 55/159/17 38/160/17

vt -736.199 252.536
f 55/159/17 39/158/17 57/161/17

vt -312.042 6.37717
vn -0.144634 0 -0.989485
vt 155.631 252.536
vt -312.042 252.536
f 39/162/18 58/163/18 57/164/18

vt 155.631 6.37717
f 58/163/18 39/162/18 40/165/18

usemtl FrontColor
f 47/87/11 48/49/11 52/102/11

usemtl Cladding_Siding_Tan
f 66/121/13 63/118/13 70/127/13

v -7.13234 3.31035 -19.1898
vt -25.1835 4.34429
f 75/166/13 70/127/13 63/118/13

f 5/126/13 70/127/13 75/166/13

v -7.13234 3.31035 -25.1017
vt -32.9419 4.34429
f 5/126/13 75/166/13 76/167/13

usemtl FrontColor
vt -253.304 755.504
vt -280.801 988.256
vt -280.801 755.504
f 60/168/11 76/169/11 75/170/11

vt -253.304 988.256
f 76/169/11 60/168/11 61/171/11

f 62/143/6 76/142/6 61/145/6

f 76/142/6 62/143/6 64/144/6

usemtl Cladding_Siding_Tan
f 64/120/13 65/119/13 76/167/13

f 5/126/13 76/167/13 65/119/13

v -4.30676 3.31035 -28.0808
vt 5.65191 4.34429
vt 9.36003 0.212572
vt 9.36003 9.40326
f 77/172/2 5/173/2 65/174/2

vt -37.5684 0.212572
f 5/173/2 77/172/2 4/175/2

v 25.0889 3.31035 -28.0808
vt -32.9251 4.34429
f 78/176/2 4/175/2 77/172/2

v 28.6271 7.16529 -28.0808
vt -37.5684 9.40326
f 4/175/2 78/176/2 79/177/2

v 25.0889 4.65478 -28.0808
vt -32.9251 6.10864
f 79/177/2 78/176/2 80/178/2

usemtl FrontColor
v 25.0889 3.31035 -27.5748
vt -1085.62 130.329
vt -1105.54 183.259
vt -1105.54 130.329
f 81/179/7 80/180/7 78/181/7

v 25.0889 4.65478 -27.5748
vt -1085.62 183.259
f 80/180/7 81/179/7 82/182/7

usemtl Steve_Shoes2
vt 987.753 130.329
vt 1099.56 252.536
vt 987.753 183.259
f 81/183/6 54/184/6 82/185/6

vt 1099.56 6.37717
f 81/183/6 17/186/6 54/184/6

vt -253.304 6.37717
f 17/186/6 81/183/6 18/187/6

v -4.30676 3.31035 -27.5748
vt -169.557 130.329
f 83/188/6 18/187/6 81/183/6

vt -253.304 252.536
f 18/187/6 83/188/6 56/189/6

v -4.30676 4.65478 -27.5748
vt -169.557 183.259
f 56/189/6 83/188/6 84/190/6

usemtl FrontColor
vt 1105.54 130.329
vt 1085.62 183.259
vt 1085.62 130.329
f 77/191/8 84/192/8 83/193/8

v -4.30676 4.65478 -28.0808
vt 1105.54 183.259
f 84/192/8 77/191/8 85/194/8

usemtl Cladding_Siding_Tan
vt 5.65191 6.10864
f 77/172/2 65/174/2 85/195/2

v 3.76383 4.65478 -28.0808
vt -4.93941 6.10864
f 85/195/2 65/174/2 86/196/2

v 16.9946 4.65478 -28.0808
vt -22.3026 6.10864
f 86/196/2 65/174/2 87/197/2

f 87/197/2 65/174/2 80/178/2

f 79/177/2 80/178/2 65/174/2

v 10.7474 8.64973 -28.0808
vt -14.1042 11.3514
f 79/177/2 65/174/2 88/198/2

usemtl Roofing_Tile_Spanish
vt -15.7935 -5.69994
vn -0.0827392 0.996571 8.08288e-018
v 0.550358 7.80313 -8.60134
vt -4.83765 1.0447
vt -15.7935 9.99669
f 65/199/19 89/200/19 88/201/19

vt -4.83765 -5.69994
f 89/200/19 65/199/19 68/202/19

usemtl Cladding_Siding_Tan
vt -9.36003 0.212572
vn 1.23799e-016 -1.19051e-016 1
vt 0.722255 10.2403
vt -9.36003 9.40326
f 20/203/20 89/204/20 68/205/20

vt 0.722255 0.212572
f 89/204/20 20/203/20 21/206/20

vt -4.83915e-017 0.212572
vn -1 -1.57901e-016 -6.70006e-017
vt -11.2879 10.2403
f 22/207/21 89/208/21 21/124/21

v 0.550358 7.80313 -0
vt -4.83915e-017 10.2403
f 89/208/21 22/207/21 90/209/21

v 3.37836 4.94039 -0
vt 4.43354 6.48345
f 22/206/9 91/210/9 90/204/9

vt 4.43354 0.212572
f 91/210/9 22/206/9 33/211/9

usemtl FrontColor
vt 21.6676 2.85944e-017
vt 133.006 2.85944e-017
f 43/82/5 22/212/5 33/213/5

f 22/212/5 43/82/5 21/34/5

vt 133.006 19.9197
f 43/82/5 33/213/5 34/214/5

f 34/91/8 91/55/8 33/52/8

vt 19.9197 194.504
f 91/55/8 34/91/8 50/215/8

vt -471.221 19.9197
vt -133.006 0
vt -133.006 19.9197
f 30/216/3 91/217/3 50/218/3

vt -471.221 0
f 91/217/3 30/216/3 31/219/3

usemtl Cladding_Siding_Tan
f 31/58/9 32/57/9 91/210/9

f 91/210/9 32/57/9 90/204/9

v 10.7474 8.64973 -0
vt 14.1042 11.3514
f 90/204/9 32/57/9 92/220/9

usemtl Roofing_Tile_Spanish
vt 1.09238e-015 -12.0554
vn 0.0827392 0.996571 3.26275e-018
v 10.7474 8.64973 -8.60134
vt 4.83765 -8.74442
vt 2.38366e-016 -8.74442
f 32/221/22 93/222/22 92/223/22

vt 15.7935 -8.74442
f 93/222/22 32/221/22 88/224/22

v 14.5189 8.33661 -4.53078
vt 2.54824 -12.0554
f 88/224/22 32/221/22 94/225/22

usemtl Cladding_Siding_Tan
vt 1.79753e-015 10.9404
vt 5.9459 0.212572
vt 5.9459 10.9404
f 32/226/8 12/227/8 94/228/8

vt 0 0.212572
f 12/227/8 32/226/8 23/229/8

vn 4.96537e-018 1.19613e-016 1
v 28.6271 7.16529 -4.53078
vt 37.5684 9.40326
f 12/59/23 95/230/23 94/57/23

vt 37.5684 0.212572
f 95/230/23 12/59/23 2/231/23

vn 1 -7.19949e-016 2.14099e-016
v 28.6271 3.31035 -7.32802
vt 9.61683 4.34429
vt 5.9459 9.40326
f 2/227/24 96/232/24 95/233/24

vt 36.8514 0.212572
f 96/232/24 2/227/24 4/234/24

v 28.6271 3.31035 -13.5345
vt 17.7619 4.34429
f 96/232/24 4/234/24 97/235/24

v 28.6271 4.65478 -13.5345
vt 17.7619 6.10864
f 97/235/24 4/234/24 98/236/24

v 28.6271 3.31035 -21.8645
vt 28.6936 4.34429
f 98/236/24 4/234/24 99/237/24

v 28.6271 3.31035 -26.3641
vt 34.5986 4.34429
f 99/237/24 4/234/24 100/238/24

v 28.6271 4.65478 -26.3641
vt 34.5986 6.10864
f 100/238/24 4/234/24 101/239/24

vt 36.8514 9.40326
f 79/240/24 101/239/24 4/234/24

v 28.6271 4.65478 -21.8645
vt 28.6936 6.10864
f 79/240/24 102/241/24 101/239/24

f 79/240/24 98/236/24 102/241/24

v 28.6271 4.65478 -7.32802
vt 9.61683 6.10864
f 79/240/24 103/242/24 98/236/24

f 95/233/24 103/242/24 79/240/24

f 103/242/24 95/233/24 96/232/24

usemtl FrontColor
vt -1127.05 130.329
vn 4.26332e-016 1.59887e-030 -1
v 27.9287 4.65478 -7.32802
vt -1099.56 183.259
vt -1127.05 183.259
f 96/243/25 104/244/25 103/245/25

v 27.9287 3.31035 -7.32802
vt -1099.56 130.329
f 104/244/25 96/243/25 105/246/25

vt 1127.05 288.505
vn -8.06875e-016 1 -6.55486e-031
v 27.9287 3.31035 -13.5345
vt 1099.56 532.856
vt 1099.56 288.505
f 96/247/26 106/248/26 105/249/26

vt 1127.05 532.856
f 106/248/26 96/247/26 97/250/26

vt 1127.05 183.259
vn -4.26332e-016 -1.59887e-030 1
vt 1099.56 130.329
vt 1127.05 130.329
f 98/251/27 106/252/27 97/253/27

v 27.9287 4.65478 -13.5345
vt 1099.56 183.259
f 106/252/27 98/251/27 107/254/27

vt -1127.05 288.505
vn 8.06875e-016 -1 6.55486e-031
vt -1099.56 532.856
vt -1127.05 532.856
f 103/255/28 107/256/28 98/257/28

vt -1099.56 288.505
f 107/256/28 103/255/28 104/258/28

usemtl Steve_Pants
vt -288.505 183.259
v 27.9287 6.41441 -17.4556
vt -687.229 252.536
vt -532.856 183.259
f 104/259/7 108/260/7 107/261/7

v 27.9287 6.41441 -5.03674
vt -198.297 252.536
f 104/259/7 109/262/7 108/260/7

vt -198.297 6.37717
f 109/262/7 104/259/7 14/263/7

vt -288.505 130.329
f 105/264/7 14/263/7 104/259/7

vt -687.229 6.37717
f 14/263/7 105/264/7 15/265/7

vt -532.856 130.329
f 15/265/7 105/264/7 106/266/7

f 15/265/7 106/266/7 108/260/7

f 107/261/7 108/260/7 106/266/7

v 16.6031 0.16198 -17.4556
vt 653.665 6.37717
f 108/184/6 110/267/6 15/186/6

v 16.6031 6.41441 -17.4556
vt 653.665 252.536
f 110/267/6 108/184/6 111/268/6

usemtl FrontColor
vt 653.665 687.229
f 111/269/11 109/25/11 108/26/11

f 53/103/11 109/25/11 111/269/11

v 14.5189 6.41441 -12.6743
f 112/46/11 109/25/11 53/103/11

v 14.5189 6.41441 -5.03674
f 109/25/11 112/46/11 113/23/11

usemtl Steve_Pants
vt 198.297 252.536
vt 498.988 6.37717
vt 498.988 252.536
f 113/270/8 25/271/8 112/272/8

vt 198.297 6.37717
f 25/271/8 113/270/8 13/273/8

vt -571.61 252.536
vt -1099.56 6.37717
vt -571.61 6.37717
f 113/274/2 14/275/2 13/276/2

vt -1099.56 252.536
f 14/275/2 113/274/2 109/277/2

usemtl Carpet_Plush_Forest
vt 91.6296 16.5247
vt 47.6342 41.5823
vt 47.6342 16.5247
f 14/278/11 25/279/11 13/280/11

vt 52.1807 58.9291
f 25/279/11 14/278/11 37/281/11

vt 54.4721 57.2691
f 37/281/11 14/278/11 110/282/11

vt 91.6296 57.2691
f 110/282/11 14/278/11 15/283/11

usemtl FrontColor
f 16/27/5 110/269/5 15/26/5

f 110/269/5 16/27/5 37/103/5

usemtl Wood__Floor
vt 18.3259 11.7858
f 17/70/10 37/69/10 16/284/10

usemtl Steve_Shoes2
vt -626.168 252.536
vt -626.168 6.37717
f 53/285/2 16/275/2 37/286/2

v 27.9287 6.41441 -17.9616
f 16/275/2 53/285/2 114/277/2

usemtl FrontColor
f 54/28/11 53/103/11 114/27/11

usemtl Steve_Shoes2
v 27.9287 4.65478 -21.8645
vt -860.807 183.259
vt -707.149 252.536
vt -1085.62 252.536
f 115/287/7 114/288/7 54/289/7

vt -707.149 6.37717
f 114/288/7 115/287/7 16/290/7

v 27.9287 3.31035 -21.8645
vt -860.807 130.329
f 116/291/7 16/290/7 115/287/7

vt -1085.62 6.37717
f 16/290/7 116/291/7 17/292/7

v 27.9287 3.31035 -26.3641
vt -1037.96 130.329
f 17/292/7 116/291/7 117/293/7

usemtl FrontColor
vt 1127.05 860.807
vt 1099.56 1037.96
vt 1099.56 860.807
f 99/294/11 117/295/11 116/296/11

vt 1127.05 1037.96
f 117/295/11 99/294/11 100/297/11

f 101/251/6 117/252/6 100/253/6

v 27.9287 4.65478 -26.3641
f 117/252/6 101/251/6 118/254/6

vt -1127.05 1037.96
vt -1099.56 860.807
vt -1099.56 1037.96
f 101/298/3 115/299/3 118/300/3

vt -1127.05 860.807
f 115/299/3 101/298/3 102/301/3

f 99/243/2 115/244/2 102/245/2

f 115/244/2 99/243/2 116/246/2

usemtl Cladding_Siding_Tan
f 102/241/24 98/236/24 99/237/24

usemtl Steve_Shoes2
vt -1037.96 183.259
f 115/287/7 54/289/7 118/302/7

f 118/302/7 54/289/7 117/293/7

f 17/292/7 117/293/7 54/289/7

usemtl Steve_Pants
vt 92.2314 6.37717
vn -0.586664 0 0.809831
vt 126.186 252.536
vt 92.2314 252.536
f 37/303/29 111/304/29 53/305/29

vt 126.186 6.37717
f 111/304/29 37/303/29 110/306/29

usemtl Carpet_Plush_Forest
vt 45.3428 43.2423
f 37/281/11 26/307/11 25/279/11

usemtl Steve_Pants
vt -136.215 252.536
vn 0.586664 0 -0.809831
vt -170.169 6.37717
vt -136.215 6.37717
f 51/308/30 25/309/30 26/310/30

vt -170.169 252.536
f 25/309/30 51/308/30 112/311/30

usemtl FrontColor
f 53/103/11 51/48/11 112/46/11

f 25/46/5 12/24/5 13/23/5

usemtl Roofing_Tile_Spanish
vt 15.7935 -24.4411
vt 2.54824 -24.4411
f 79/312/22 94/225/22 95/313/22

f 88/224/22 94/225/22 79/312/22

vt 5.90509e-016 9.99669
vt -4.83765 9.99669
f 88/201/19 92/314/19 93/315/19

f 88/201/19 89/200/19 92/314/19

vt 3.02391e-017 1.0447
f 92/314/19 89/200/19 90/316/19

usemtl FrontColor
vt -987.753 1105.54
v 16.9946 4.65478 -27.5748
vt -669.078 1085.62
vt -669.078 1105.54
f 80/317/3 119/318/3 87/319/3

vt -987.753 1085.62
f 119/318/3 80/317/3 82/320/3

usemtl Steve_Shoes2
vt 669.078 183.259
f 82/185/6 54/184/6 119/321/6

v 3.76383 4.65478 -27.5748
vt 148.182 183.259
f 119/321/6 54/184/6 120/322/6

f 120/322/6 54/184/6 84/190/6

f 56/189/6 84/190/6 54/184/6

usemtl FrontColor
vt 169.557 1085.62
vt -148.182 1105.54
vt -148.182 1085.62
f 84/323/3 86/324/3 120/325/3

vt 169.557 1105.54
f 86/324/3 84/323/3 85/326/3

v 3.76383 3.31035 -27.5748
f 86/180/7 121/179/7 120/182/7

v 3.76383 3.31035 -28.0808
f 121/179/7 86/180/7 122/181/7

usemtl Cladding_Siding_Tan
v 16.9946 3.31035 -28.0808
vt -22.3026 4.34429
vt -4.93941 4.34429
f 86/196/2 123/327/2 122/328/2

f 123/327/2 86/196/2 87/197/2

usemtl FrontColor
f 119/192/8 123/191/8 87/194/8

v 16.9946 3.31035 -27.5748
f 123/191/8 119/192/8 124/193/8

usemtl Steve_Shoes2
vt 148.182 130.329
vt 669.078 130.329
f 119/321/6 121/329/6 124/330/6

f 121/329/6 119/321/6 120/322/6

f 83/188/6 124/330/6 121/329/6

f 83/188/6 81/183/6 124/330/6

usemtl FrontColor
vt 987.753 1085.62
vt 669.078 1105.54
vt 669.078 1085.62
f 81/331/11 123/332/11 124/333/11

vt 987.753 1105.54
f 123/332/11 81/331/11 78/334/11

usemtl Cladding_Siding_Tan
f 78/176/2 122/328/2 123/327/2

f 78/176/2 77/172/2 122/328/2

usemtl FrontColor
vt -169.557 1105.54
vt 148.182 1085.62
vt 148.182 1105.54
f 77/335/11 121/336/11 122/337/11

vt -169.557 1085.62
f 121/336/11 77/335/11 83/338/11

vt 280.801 183.259
vt 253.304 130.329
vt 280.801 130.329
f 63/339/2 60/340/2 75/341/2

vt 253.304 183.259
f 60/340/2 63/339/2 59/342/2

f 71/340/2 67/339/2 73/342/2

f 67/339/2 71/340/2 69/341/2

usemtl Brick_Antique
vt -19.0611 0.172356
f 5/343/7 8/41/7 20/40/7

vt -19.0611 0
f 8/41/7 5/343/7 7/344/7

